<svg width="15" height="18" viewBox="0 0 15 18" fill="none" xmlns="http://www.w3.org/2000/svg">
<path d="M6.27938 1.53752L7.80101 0L11.6352 3.89332L7.84755 7.79412L6.31524 6.26752L7.56261 4.98288H7.5C4.54995 4.98288 2.14922 7.41466 2.14922 10.4029C2.14922 13.3912 4.54995 15.823 7.5 15.823C10.45 15.823 12.8508 13.3912 12.8508 10.4028V9.31423L15 9.31445V10.4029C15 12.4314 14.2193 14.3405 12.8033 15.7749C11.3873 17.2092 9.5025 18 7.5 18C5.4975 18 3.61269 17.2092 2.19671 15.7749C0.780699 14.3405 -9.53674e-07 12.4314 -9.53674e-07 10.4029C-9.53674e-07 8.3745 0.780698 6.4653 2.19671 5.03096C3.61269 3.59665 5.4975 2.80585 7.5 2.80585H7.52843L6.27938 1.53752Z" fill="#DF444D"/>
</svg>
