<svg width="16" height="16" viewBox="0 0 16 16" fill="none" xmlns="http://www.w3.org/2000/svg">
<path d="M8 0.5C6.51664 0.5 5.0666 0.939867 3.83323 1.76398C2.59986 2.58809 1.63856 3.75943 1.07091 5.12987C0.50325 6.50032 0.354725 8.00832 0.644114 9.46318C0.933503 10.918 1.64781 12.2544 2.6967 13.3033C3.7456 14.3522 5.08197 15.0665 6.53683 15.3559C7.99168 15.6453 9.49968 15.4968 10.8701 14.9291C12.2406 14.3614 13.4119 13.4001 14.236 12.1668C15.0601 10.9334 15.5 9.48336 15.5 8C15.5 7.01509 15.306 6.03982 14.9291 5.12987C14.5522 4.21993 13.9997 3.39314 13.3033 2.6967C12.6069 2.00026 11.7801 1.44781 10.8701 1.0709C9.96019 0.693993 8.98492 0.5 8 0.5V0.5ZM11.75 8.75H8C7.80109 8.75 7.61033 8.67098 7.46967 8.53033C7.32902 8.38968 7.25 8.19891 7.25 8V3.5C7.25 3.30109 7.32902 3.11032 7.46967 2.96967C7.61033 2.82902 7.80109 2.75 8 2.75C8.19892 2.75 8.38968 2.82902 8.53033 2.96967C8.67099 3.11032 8.75 3.30109 8.75 3.5V7.25H11.75C11.9489 7.25 12.1397 7.32902 12.2803 7.46967C12.421 7.61032 12.5 7.80109 12.5 8C12.5 8.19891 12.421 8.38968 12.2803 8.53033C12.1397 8.67098 11.9489 8.75 11.75 8.75Z" fill="black"/>
</svg>
