<svg width="12" height="16" viewBox="0 0 12 16" fill="none" xmlns="http://www.w3.org/2000/svg">
<path d="M6.00002 15.5002C7.78608 14.7739 9.31246 13.5273 10.3809 11.9223C11.4492 10.3173 12.0103 8.42814 11.991 6.50016C12.0089 5.70193 11.8671 4.90818 11.574 4.1655C11.2808 3.42283 10.8423 2.7462 10.2841 2.17535C9.72584 1.60449 9.05919 1.15092 8.32326 0.841252C7.58733 0.531586 6.79695 0.37207 5.99852 0.37207C5.20009 0.37207 4.40971 0.531586 3.67378 0.841252C2.93784 1.15092 2.2712 1.60449 1.71297 2.17535C1.15475 2.7462 0.716201 3.42283 0.423076 4.1655C0.12995 4.90818 -0.0118445 5.70193 0.0060167 6.50016C-0.0129867 8.42848 0.548471 10.3179 1.61742 11.923C2.68637 13.528 4.21339 14.7744 6.00002 15.5002V15.5002ZM4.50002 6.50016C4.50002 6.20349 4.58799 5.91348 4.75281 5.6668C4.91763 5.42013 5.1519 5.22787 5.42599 5.11434C5.70008 5.00081 6.00168 4.9711 6.29265 5.02898C6.58362 5.08686 6.8509 5.22972 7.06068 5.4395C7.27046 5.64928 7.41332 5.91655 7.47119 6.20752C7.52907 6.4985 7.49937 6.8001 7.38584 7.07418C7.2723 7.34827 7.08005 7.58254 6.83337 7.74736C6.5867 7.91219 6.29669 8.00016 6.00002 8.00016C5.60219 8.00016 5.22066 7.84212 4.93936 7.56082C4.65805 7.27951 4.50002 6.89798 4.50002 6.50016Z" fill="black"/>
</svg>
