<svg width="24" height="24" fill="none" xmlns="http://www.w3.org/2000/svg"><circle cx="12" cy="12" r="10" stroke="#DF444D" stroke-width="1.8"/><path d="M12.325 5.029c.374 0 .675.136.901.408.238.272.346.606.323 1.003a1.474 1.474 0 01-.39.986 1.24 1.24 0 01-.936.391c-.385 0-.697-.13-.935-.391a1.421 1.421 0 01-.323-.986 1.49 1.49 0 01.442-1.003c.272-.272.578-.408.918-.408zm-.595 4.284c.59 0 .997.181 1.224.544.238.351.357.827.357 1.428 0 .272-.028.64-.085 1.105-.057.465-.119.952-.187 1.462l-.187 1.394c-.056.42-.085.725-.085.918 0 .181.029.3.085.357.057.057.114.085.17.085.136 0 .272-.096.408-.289.136-.193.278-.544.425-1.054l.918.272c-.045.238-.136.51-.272.816-.124.306-.294.6-.51.884a2.821 2.821 0 01-.782.68 1.906 1.906 0 01-1.02.272c-.623 0-1.054-.17-1.292-.51-.226-.34-.34-.81-.34-1.411 0-.329.028-.72.085-1.173.057-.453.12-.918.187-1.394.08-.476.147-.918.204-1.326.057-.42.085-.765.085-1.037 0-.193-.028-.312-.085-.357a.26.26 0 00-.187-.085c-.124 0-.255.096-.39.289-.137.193-.278.544-.426 1.054l-.918-.272a3.81 3.81 0 01.272-.816c.136-.306.312-.595.527-.867.227-.283.488-.516.782-.697a1.995 1.995 0 011.037-.272z" fill="#DF444D"/></svg>