<svg width="1670" height="622" fill="none" xmlns="http://www.w3.org/2000/svg"><path d="M0 102h1670v420c0 55.228-44.77 100-100 100H0V102z" fill="url(#paint0_linear)"/><path d="M-136 3.5a3.5 3.5 0 11-7 0 3.5 3.5 0 017 0zm0 50a3.5 3.5 0 11-7 0 3.5 3.5 0 017 0zm0 50a3.5 3.5 0 11-7 0 3.5 3.5 0 017 0zm0 50a3.5 3.5 0 11-7 0 3.5 3.5 0 017 0zm0 50a3.5 3.5 0 11-7 0 3.5 3.5 0 017 0zm0 50a3.5 3.5 0 11-7 0 3.5 3.5 0 017 0zm0 50a3.5 3.5 0 11-7 0 3.5 3.5 0 017 0zm47-300a3.5 3.5 0 11-7 0 3.5 3.5 0 017 0zm0 50a3.5 3.5 0 11-7 0 3.5 3.5 0 017 0zm0 50a3.5 3.5 0 11-7 0 3.5 3.5 0 017 0zm0 50a3.5 3.5 0 11-7 0 3.5 3.5 0 017 0zm0 50a3.5 3.5 0 11-7 0 3.5 3.5 0 017 0zm0 50a3.5 3.5 0 11-7 0 3.5 3.5 0 017 0zm0 50a3.5 3.5 0 11-7 0 3.5 3.5 0 017 0zm47-300a3.5 3.5 0 11-7 0 3.5 3.5 0 017 0zm0 50a3.5 3.5 0 11-7 0 3.5 3.5 0 017 0zm0 50a3.5 3.5 0 11-7 0 3.5 3.5 0 017 0zm0 50a3.5 3.5 0 11-7 0 3.5 3.5 0 017 0zm0 50a3.5 3.5 0 11-7 0 3.5 3.5 0 017 0zm0 50a3.5 3.5 0 11-7 0 3.5 3.5 0 017 0zm0 50a3.5 3.5 0 11-7 0 3.5 3.5 0 017 0zM5 3.5a3.5 3.5 0 11-7 0 3.5 3.5 0 017 0zm0 50a3.5 3.5 0 11-7 0 3.5 3.5 0 017 0zm0 50a3.5 3.5 0 11-7 0 3.5 3.5 0 017 0zm0 50a3.5 3.5 0 11-7 0 3.5 3.5 0 017 0zm0 50a3.5 3.5 0 11-7 0 3.5 3.5 0 017 0zm0 50a3.5 3.5 0 11-7 0 3.5 3.5 0 017 0zm0 50a3.5 3.5 0 11-7 0 3.5 3.5 0 017 0zm47-300a3.5 3.5 0 11-7 0 3.5 3.5 0 017 0zm0 50a3.5 3.5 0 11-7 0 3.5 3.5 0 017 0zm0 50a3.5 3.5 0 11-7 0 3.5 3.5 0 017 0zm0 50a3.5 3.5 0 11-7 0 3.5 3.5 0 017 0zm0 50a3.5 3.5 0 11-7 0 3.5 3.5 0 017 0zm0 50a3.5 3.5 0 11-7 0 3.5 3.5 0 017 0zm0 50a3.5 3.5 0 11-7 0 3.5 3.5 0 017 0zm47-300a3.5 3.5 0 11-7 0 3.5 3.5 0 017 0zm0 50a3.5 3.5 0 11-7 0 3.5 3.5 0 017 0zm0 50a3.5 3.5 0 11-7 0 3.5 3.5 0 017 0zm0 50a3.5 3.5 0 11-7 0 3.5 3.5 0 017 0zm0 50a3.5 3.5 0 11-7 0 3.5 3.5 0 017 0zm0 50a3.5 3.5 0 11-7 0 3.5 3.5 0 017 0zm0 50a3.5 3.5 0 11-7 0 3.5 3.5 0 017 0zm47-300a3.5 3.5 0 11-7 0 3.5 3.5 0 017 0zm0 50a3.5 3.5 0 11-7 0 3.5 3.5 0 017 0zm0 50a3.5 3.5 0 11-7 0 3.5 3.5 0 017 0zm0 50a3.5 3.5 0 11-7 0 3.5 3.5 0 017 0zm0 50a3.5 3.5 0 11-7 0 3.5 3.5 0 017 0zm0 50a3.5 3.5 0 11-7 0 3.5 3.5 0 017 0zm0 50a3.5 3.5 0 11-7 0 3.5 3.5 0 017 0zm47-300a3.5 3.5 0 11-7 0 3.5 3.5 0 017 0zm0 50a3.5 3.5 0 11-7 0 3.5 3.5 0 017 0zm0 50a3.5 3.5 0 11-7 0 3.5 3.5 0 017 0zm0 50a3.5 3.5 0 11-7 0 3.5 3.5 0 017 0zm0 50a3.5 3.5 0 11-7 0 3.5 3.5 0 017 0zm0 50a3.5 3.5 0 11-7 0 3.5 3.5 0 017 0zm0 50a3.5 3.5 0 11-7 0 3.5 3.5 0 017 0zm-354-275a3.5 3.5 0 11-7 0 3.5 3.5 0 017 0zm0 50a3.5 3.5 0 11-7 0 3.5 3.5 0 017 0zm0 50a3.5 3.5 0 11-7 0 3.5 3.5 0 017 0zm0 50a3.5 3.5 0 11-7 0 3.5 3.5 0 017 0zm0 50a3.5 3.5 0 11-7 0 3.5 3.5 0 017 0zm0 50a3.5 3.5 0 11-7 0 3.5 3.5 0 017 0zm0 50a3.5 3.5 0 11-7 0 3.5 3.5 0 017 0zm47-300a3.5 3.5 0 11-7 0 3.5 3.5 0 017 0zm0 50a3.5 3.5 0 11-7 0 3.5 3.5 0 017 0zm0 50a3.5 3.5 0 11-7 0 3.5 3.5 0 017 0zm0 50a3.5 3.5 0 11-7 0 3.5 3.5 0 017 0zm0 50a3.5 3.5 0 11-7 0 3.5 3.5 0 017 0zm0 50a3.5 3.5 0 11-7 0 3.5 3.5 0 017 0zm0 50a3.5 3.5 0 11-7 0 3.5 3.5 0 017 0zm47-300a3.5 3.5 0 11-7 0 3.5 3.5 0 017 0zm0 50a3.5 3.5 0 11-7 0 3.5 3.5 0 017 0zm0 50a3.5 3.5 0 11-7 0 3.5 3.5 0 017 0zm0 50a3.5 3.5 0 11-7 0 3.5 3.5 0 017 0zm0 50a3.5 3.5 0 11-7 0 3.5 3.5 0 017 0zm0 50a3.5 3.5 0 11-7 0 3.5 3.5 0 017 0zm0 50a3.5 3.5 0 11-7 0 3.5 3.5 0 017 0zm47-300a3.5 3.5 0 11-7 0 3.5 3.5 0 017 0zm0 50a3.5 3.5 0 11-7 0 3.5 3.5 0 017 0zm0 50a3.5 3.5 0 11-7 0 3.5 3.5 0 017 0zm0 50a3.5 3.5 0 11-7 0 3.5 3.5 0 017 0zm0 50a3.5 3.5 0 11-7 0 3.5 3.5 0 017 0zm0 50a3.5 3.5 0 11-7 0 3.5 3.5 0 017 0zm0 50a3.5 3.5 0 11-7 0 3.5 3.5 0 017 0zm47-300a3.5 3.5 0 11-7 0 3.5 3.5 0 017 0zm0 50a3.5 3.5 0 11-7 0 3.5 3.5 0 017 0zm0 50a3.5 3.5 0 11-7 0 3.5 3.5 0 017 0zm0 50a3.5 3.5 0 11-7 0 3.5 3.5 0 017 0zm0 50a3.5 3.5 0 11-7 0 3.5 3.5 0 017 0zm0 50a3.5 3.5 0 11-7 0 3.5 3.5 0 017 0zm0 50a3.5 3.5 0 11-7 0 3.5 3.5 0 017 0zm47-300a3.5 3.5 0 11-7 0 3.5 3.5 0 017 0zm0 50a3.5 3.5 0 11-7 0 3.5 3.5 0 017 0zm0 50a3.5 3.5 0 11-7 0 3.5 3.5 0 017 0zm0 50a3.5 3.5 0 11-7 0 3.5 3.5 0 017 0zm0 50a3.5 3.5 0 11-7 0 3.5 3.5 0 017 0zm0 50a3.5 3.5 0 11-7 0 3.5 3.5 0 017 0zm0 50a3.5 3.5 0 11-7 0 3.5 3.5 0 017 0zm47-300a3.5 3.5 0 11-7 0 3.5 3.5 0 017 0zm0 50a3.5 3.5 0 11-7 0 3.5 3.5 0 017 0zm0 50a3.5 3.5 0 11-7 0 3.5 3.5 0 017 0zm0 50a3.5 3.5 0 11-7 0 3.5 3.5 0 017 0zm0 50a3.5 3.5 0 11-7 0 3.5 3.5 0 017 0zm0 50a3.5 3.5 0 11-7 0 3.5 3.5 0 017 0zm0 50a3.5 3.5 0 11-7 0 3.5 3.5 0 017 0zm47-300a3.5 3.5 0 11-7 0 3.5 3.5 0 017 0zm0 50a3.5 3.5 0 11-7 0 3.5 3.5 0 017 0zm0 50a3.5 3.5 0 11-7 0 3.5 3.5 0 017 0zm0 50a3.5 3.5 0 11-7 0 3.5 3.5 0 017 0zm0 50a3.5 3.5 0 11-7 0 3.5 3.5 0 017 0zm0 50a3.5 3.5 0 11-7 0 3.5 3.5 0 017 0zm0 50a3.5 3.5 0 11-7 0 3.5 3.5 0 017 0z" opacity=".3" fill="#DF444D"/><defs><linearGradient id="paint0_linear" x1="0" y1="622" x2="1495.14" y2="-211.626" gradientUnits="userSpaceOnUse"><stop stop-color="#F8F0EF"/><stop offset="1" stop-color="#FAF1FD"/></linearGradient></defs></svg>