<svg width="264" height="272" fill="none" xmlns="http://www.w3.org/2000/svg"><path d="M241.397 99.339c-6.81 7.305-14.542 12.728-22.719 17.387-7.546 4.278-15.187 8.397-23.018 12.196a248.895 248.895 0 01-21.444 9.208c-10.329 3.889-20.817 7.491-31.305 10.901-9.73 3.158-19.556 6.029-29.445 8.709-9.068 2.491-18.2 4.6-27.363 6.805-6.067 1.448-12.198 2.578-18.233 4.186-1.643.441-3.379 1.742-4.387 3.14-6.048 8.326-14.1 12.857-24.278 13.594-8.03.552-15.497-1.506-22.117-6.14C6.38 171.847.758 161.42 1.008 148.399c.308-14.995 10.52-27.767 25.878-30.718 13.968-2.701 29.227 4.598 36.784 16.844 2.73 4.401 4.609 9.214 5.002 14.5.229 2.834.64 2.931 3.103 1.664 10.104-5.131 20.272-10.198 30.408-15.297 9.41-4.751 18.819-9.502 28.229-14.316a4564.064 4564.064 0 0032.933-16.882c8.62-4.466 17.208-9.092 25.86-13.526 10.356-5.385 20.777-10.58 31.101-15.996 7.263-3.801 14.366-7.826 21.533-11.723 3.663-1.964 7.325-3.928 10.988-5.829 1.484-.792 2.592-.12 3.071 1.76 1.917 7.39 1.272 14.616-1.46 21.71-2.953 7.505-7.489 13.733-13.041 18.749zM50.031 166.327c7.79-7.843 7.565-21.025-.487-29.133-8.401-8.46-21.334-9.035-29.093-1.478-8.736 8.477-7.31 21.917.806 30.089 7.83 7.821 21.269 8.08 28.774.522zm67.688-26.659c-2.156-2.235-5.635-2.435-7.59-.466-2.113 2.127-2.135 5.789-.043 7.895 2.124 2.139 5.793 2.276 7.842.276 2.019-1.969 1.915-5.503-.209-7.705z" fill="#755AAF"/><path d="M148.992 104.729c-1.863 1.045-3.631 2.123-5.493 3.105-10.294 5.322-20.619 10.611-30.913 15.932-1.199.634-2.272 1.459-3.504 1.933-.758.317-1.991.409-2.466-.006-.444-.383-.448-1.721-.165-2.452 3.546-10.211 6.871-20.518 10.828-30.568 4.554-11.672 9.425-23.217 14.548-34.633 2.767-6.106 6.293-11.827 9.629-17.677 4.941-8.742 10.833-16.781 17.896-23.894 7.096-7.209 15.207-12.759 25.351-14.801 5.182-1.07 10.337-.833 15.431.55 2.405.643 2.691 1.567 1.496 3.73-6.136 11.35-12.209 22.7-18.313 34.081-4.688 8.743-9.408 17.454-14.032 26.197-3.776 7.122-7.362 14.308-11.105 21.462-2.863 5.5-5.789 10.937-8.716 16.373a2.338 2.338 0 01-.472.668zm-30.931 57.067c-.344 1.432-.436 2.355-.814 3.118-3.712 6.995-7.457 13.957-11.201 20.92-1.038 1.939-.815 2.609 1.462 2.933 8.319 1.136 15.695 4.563 21.307 10.786 8.055 8.873 11.623 19.198 9.695 31.418-1.959 12.571-12.523 23.4-24.848 25.469-8.818 1.472-16.853.05-24.453-4.364-9.69-5.629-15.466-14.177-17.456-25.198-1.54-8.41-.01-16.27 4.587-23.58 2.518-4.005 5.64-7.212 9.554-9.813 1.042-.666 1.986-2.064 2.3-3.273 1.69-6.49 3.19-13.045 4.722-19.568.47-2.068 1.573-3.18 3.659-3.683 6.035-1.481 12.069-3.152 18.104-4.696.948-.252 1.897-.25 3.382-.469zm-27.628 74.428c2.568 2.841 5.07 4.535 8.647 5.85 13.419 5.002 27.653-4.798 26.57-19.86-.789-11.337-11.437-20.917-22.66-20.278-5.975.334-10.806 2.773-14.525 7.539-6.019 7.593-4.911 19.949 1.968 26.749z" fill="#755AAF"/></svg>