<svg width="112" height="124" fill="none" xmlns="http://www.w3.org/2000/svg"><g filter="url(#filter0_d)" fill="#FFBF51"><path d="M65.6 64.124H46.4v22.342C51.993 88.436 56 93.752 56 100c0-6.248 4.007-11.564 9.6-13.534V64.124z"/><path d="M92 51.876c0 19.814-16.118 35.876-36 35.876S20 71.69 20 51.876C20 32.062 36.118 16 56 16s36 16.062 36 35.876z"/></g><path d="M75.136 46.111c-1.164 1.267-2.486 2.207-3.884 3.015a69.194 69.194 0 01-3.935 2.116 42.323 42.323 0 01-3.666 1.596 123.081 123.081 0 01-5.352 1.89 105.575 105.575 0 01-5.034 1.511c-1.55.432-3.111.798-4.678 1.18-1.037.252-2.085.447-3.117.726-.28.077-.578.302-.75.545-1.034 1.444-2.41 2.23-4.15 2.357a5.7 5.7 0 01-3.782-1.064c-1.83-1.297-2.791-3.105-2.748-5.364.052-2.6 1.798-4.815 4.424-5.327 2.387-.468 4.996.797 6.288 2.921.467.763.788 1.598.855 2.515.04.491.11.508.53.288 1.728-.89 3.466-1.768 5.2-2.653 1.608-.824 3.216-1.647 4.825-2.482a777.505 777.505 0 005.63-2.928c1.474-.775 2.942-1.577 4.421-2.346 1.77-.934 3.552-1.834 5.317-2.774 1.242-.66 2.456-1.357 3.681-2.033.627-.34 1.253-.681 1.879-1.01.254-.138.443-.022.525.304.328 1.282.217 2.535-.25 3.765a8.597 8.597 0 01-2.23 3.252zM42.42 57.728c1.332-1.36 1.294-3.646-.083-5.052-1.436-1.467-3.647-1.567-4.974-.256-1.493 1.47-1.25 3.8.138 5.218 1.339 1.356 3.636 1.401 4.92.09zm11.572-4.623c-.369-.387-.963-.422-1.297-.08-.362.368-.365 1.003-.008 1.369.363.37.99.394 1.34.047.346-.341.328-.954-.035-1.336z" fill="#111"/><path d="M59.338 47.046c-.318.181-.62.368-.939.538-1.76.923-3.525 1.84-5.284 2.763-.206.11-.389.253-.6.335-.13.055-.34.071-.421 0-.076-.067-.077-.299-.028-.426.606-1.77 1.174-3.558 1.85-5.301a131.653 131.653 0 012.488-6.006c.473-1.06 1.076-2.051 1.646-3.066.845-1.516 1.852-2.91 3.06-4.144 1.213-1.25 2.6-2.213 4.334-2.567a5.54 5.54 0 012.638.096c.41.111.46.272.255.646-1.049 1.969-2.087 3.937-3.13 5.911-.802 1.516-1.609 3.027-2.4 4.543-.645 1.235-1.258 2.482-1.898 3.722a245.5 245.5 0 01-1.49 2.84.405.405 0 01-.08.116zm-5.288 9.897c-.058.248-.074.408-.139.54a763.968 763.968 0 01-1.915 3.628c-.177.337-.139.453.25.509 1.423.197 2.684.791 3.643 1.87 1.377 1.54 1.987 3.33 1.657 5.45-.334 2.18-2.14 4.057-4.248 4.416-1.507.256-2.88.009-4.18-.756-1.656-.977-2.644-2.46-2.984-4.37-.263-1.459-.002-2.822.784-4.09.43-.694.964-1.25 1.633-1.702.178-.115.34-.358.393-.567.29-1.126.546-2.263.808-3.394.08-.359.269-.551.625-.639 1.032-.257 2.064-.546 3.095-.814.163-.044.325-.043.579-.081zM49.328 69.85c.44.493.867.787 1.479 1.015 2.294.867 4.727-.832 4.542-3.444-.135-1.967-1.955-3.628-3.874-3.517-1.021.058-1.847.48-2.483 1.307-1.03 1.317-.84 3.46.336 4.64z" fill="#111"/><defs><filter id="filter0_d" x="0" y="0" width="112" height="124" filterUnits="userSpaceOnUse" color-interpolation-filters="sRGB"><feFlood flood-opacity="0" result="BackgroundImageFix"/><feColorMatrix in="SourceAlpha" values="0 0 0 0 0 0 0 0 0 0 0 0 0 0 0 0 0 0 127 0"/><feOffset dy="4"/><feGaussianBlur stdDeviation="10"/><feColorMatrix values="0 0 0 0 0.795833 0 0 0 0 0.582392 0 0 0 0 0.215538 0 0 0 1 0"/><feBlend in2="BackgroundImageFix" result="effect1_dropShadow"/><feBlend in="SourceGraphic" in2="effect1_dropShadow" result="shape"/></filter></defs></svg>