<svg width="41" height="41" fill="none" xmlns="http://www.w3.org/2000/svg"><path d="M30.086 28.567c-.143-.181-3.578-4.454-9.586-4.454-6.008 0-9.443 4.273-9.586 4.454l2.516 1.983c.025-.033 2.6-3.234 7.07-3.234 4.416 0 6.969 3.108 7.075 3.24l-.005-.006 2.516-1.983z" fill="#755AAF"/><path d="M34.996 6.004A20.366 20.366 0 0020.5 0 20.366 20.366 0 006.004 6.004 20.366 20.366 0 000 20.5a20.366 20.366 0 006.004 14.496A20.366 20.366 0 0020.5 41a20.366 20.366 0 0014.496-6.004A20.366 20.366 0 0041 20.5a20.366 20.366 0 00-6.004-14.496zM20.5 37.797c-9.537 0-17.297-7.76-17.297-17.297S10.963 3.203 20.5 3.203c9.538 0 17.297 7.76 17.297 17.297 0 9.538-7.76 17.297-17.297 17.297z" fill="#755AAF"/><path d="M13.453 16.986a2.562 2.562 0 100-5.125 2.562 2.562 0 000 5.125zm14.094 0a2.563 2.563 0 100-5.125 2.563 2.563 0 000 5.125z" fill="#755AAF"/></svg>