<svg width="1670" height="622" viewBox="0 0 1670 622" fill="none" xmlns="http://www.w3.org/2000/svg">
<path d="M0 102H1670V522C1670 577.228 1625.23 622 1570 622H0V102Z" fill="url(#paint0_linear)"/>
<g opacity="0.3">
<path d="M-136 3.5C-136 5.433 -137.567 7 -139.5 7C-141.433 7 -143 5.433 -143 3.5C-143 1.567 -141.433 0 -139.5 0C-137.567 0 -136 1.567 -136 3.5Z" fill="#DF444D"/>
<path d="M-136 53.5C-136 55.433 -137.567 57 -139.5 57C-141.433 57 -143 55.433 -143 53.5C-143 51.567 -141.433 50 -139.5 50C-137.567 50 -136 51.567 -136 53.5Z" fill="#DF444D"/>
<path d="M-136 103.5C-136 105.433 -137.567 107 -139.5 107C-141.433 107 -143 105.433 -143 103.5C-143 101.567 -141.433 100 -139.5 100C-137.567 100 -136 101.567 -136 103.5Z" fill="#DF444D"/>
<path d="M-136 153.5C-136 155.433 -137.567 157 -139.5 157C-141.433 157 -143 155.433 -143 153.5C-143 151.567 -141.433 150 -139.5 150C-137.567 150 -136 151.567 -136 153.5Z" fill="#DF444D"/>
<path d="M-136 203.5C-136 205.433 -137.567 207 -139.5 207C-141.433 207 -143 205.433 -143 203.5C-143 201.567 -141.433 200 -139.5 200C-137.567 200 -136 201.567 -136 203.5Z" fill="#DF444D"/>
<path d="M-136 253.5C-136 255.433 -137.567 257 -139.5 257C-141.433 257 -143 255.433 -143 253.5C-143 251.567 -141.433 250 -139.5 250C-137.567 250 -136 251.567 -136 253.5Z" fill="#DF444D"/>
<path d="M-136 303.5C-136 305.433 -137.567 307 -139.5 307C-141.433 307 -143 305.433 -143 303.5C-143 301.567 -141.433 300 -139.5 300C-137.567 300 -136 301.567 -136 303.5Z" fill="#DF444D"/>
<path d="M-89 3.5C-89 5.433 -90.567 7 -92.5 7C-94.433 7 -96 5.433 -96 3.5C-96 1.567 -94.433 0 -92.5 0C-90.567 0 -89 1.567 -89 3.5Z" fill="#DF444D"/>
<path d="M-89 53.5C-89 55.433 -90.567 57 -92.5 57C-94.433 57 -96 55.433 -96 53.5C-96 51.567 -94.433 50 -92.5 50C-90.567 50 -89 51.567 -89 53.5Z" fill="#DF444D"/>
<path d="M-89 103.5C-89 105.433 -90.567 107 -92.5 107C-94.433 107 -96 105.433 -96 103.5C-96 101.567 -94.433 100 -92.5 100C-90.567 100 -89 101.567 -89 103.5Z" fill="#DF444D"/>
<path d="M-89 153.5C-89 155.433 -90.567 157 -92.5 157C-94.433 157 -96 155.433 -96 153.5C-96 151.567 -94.433 150 -92.5 150C-90.567 150 -89 151.567 -89 153.5Z" fill="#DF444D"/>
<path d="M-89 203.5C-89 205.433 -90.567 207 -92.5 207C-94.433 207 -96 205.433 -96 203.5C-96 201.567 -94.433 200 -92.5 200C-90.567 200 -89 201.567 -89 203.5Z" fill="#DF444D"/>
<path d="M-89 253.5C-89 255.433 -90.567 257 -92.5 257C-94.433 257 -96 255.433 -96 253.5C-96 251.567 -94.433 250 -92.5 250C-90.567 250 -89 251.567 -89 253.5Z" fill="#DF444D"/>
<path d="M-89 303.5C-89 305.433 -90.567 307 -92.5 307C-94.433 307 -96 305.433 -96 303.5C-96 301.567 -94.433 300 -92.5 300C-90.567 300 -89 301.567 -89 303.5Z" fill="#DF444D"/>
<path d="M-42 3.5C-42 5.433 -43.567 7 -45.5 7C-47.433 7 -49 5.433 -49 3.5C-49 1.567 -47.433 0 -45.5 0C-43.567 0 -42 1.567 -42 3.5Z" fill="#DF444D"/>
<path d="M-42 53.5C-42 55.433 -43.567 57 -45.5 57C-47.433 57 -49 55.433 -49 53.5C-49 51.567 -47.433 50 -45.5 50C-43.567 50 -42 51.567 -42 53.5Z" fill="#DF444D"/>
<path d="M-42 103.5C-42 105.433 -43.567 107 -45.5 107C-47.433 107 -49 105.433 -49 103.5C-49 101.567 -47.433 100 -45.5 100C-43.567 100 -42 101.567 -42 103.5Z" fill="#DF444D"/>
<path d="M-42 153.5C-42 155.433 -43.567 157 -45.5 157C-47.433 157 -49 155.433 -49 153.5C-49 151.567 -47.433 150 -45.5 150C-43.567 150 -42 151.567 -42 153.5Z" fill="#DF444D"/>
<path d="M-42 203.5C-42 205.433 -43.567 207 -45.5 207C-47.433 207 -49 205.433 -49 203.5C-49 201.567 -47.433 200 -45.5 200C-43.567 200 -42 201.567 -42 203.5Z" fill="#DF444D"/>
<path d="M-42 253.5C-42 255.433 -43.567 257 -45.5 257C-47.433 257 -49 255.433 -49 253.5C-49 251.567 -47.433 250 -45.5 250C-43.567 250 -42 251.567 -42 253.5Z" fill="#DF444D"/>
<path d="M-42 303.5C-42 305.433 -43.567 307 -45.5 307C-47.433 307 -49 305.433 -49 303.5C-49 301.567 -47.433 300 -45.5 300C-43.567 300 -42 301.567 -42 303.5Z" fill="#DF444D"/>
<path d="M5 3.5C5 5.433 3.433 7 1.5 7C-0.432999 7 -2 5.433 -2 3.5C-2 1.567 -0.432999 0 1.5 0C3.433 0 5 1.567 5 3.5Z" fill="#DF444D"/>
<path d="M5 53.5C5 55.433 3.433 57 1.5 57C-0.432999 57 -2 55.433 -2 53.5C-2 51.567 -0.432999 50 1.5 50C3.433 50 5 51.567 5 53.5Z" fill="#DF444D"/>
<path d="M5 103.5C5 105.433 3.433 107 1.5 107C-0.432999 107 -2 105.433 -2 103.5C-2 101.567 -0.432999 100 1.5 100C3.433 100 5 101.567 5 103.5Z" fill="#DF444D"/>
<path d="M5 153.5C5 155.433 3.433 157 1.5 157C-0.432999 157 -2 155.433 -2 153.5C-2 151.567 -0.432999 150 1.5 150C3.433 150 5 151.567 5 153.5Z" fill="#DF444D"/>
<path d="M5 203.5C5 205.433 3.433 207 1.5 207C-0.432999 207 -2 205.433 -2 203.5C-2 201.567 -0.432999 200 1.5 200C3.433 200 5 201.567 5 203.5Z" fill="#DF444D"/>
<path d="M5 253.5C5 255.433 3.433 257 1.5 257C-0.432999 257 -2 255.433 -2 253.5C-2 251.567 -0.432999 250 1.5 250C3.433 250 5 251.567 5 253.5Z" fill="#DF444D"/>
<path d="M5 303.5C5 305.433 3.433 307 1.5 307C-0.432999 307 -2 305.433 -2 303.5C-2 301.567 -0.432999 300 1.5 300C3.433 300 5 301.567 5 303.5Z" fill="#DF444D"/>
<path d="M52 3.5C52 5.433 50.433 7 48.5 7C46.567 7 45 5.433 45 3.5C45 1.567 46.567 0 48.5 0C50.433 0 52 1.567 52 3.5Z" fill="#DF444D"/>
<path d="M52 53.5C52 55.433 50.433 57 48.5 57C46.567 57 45 55.433 45 53.5C45 51.567 46.567 50 48.5 50C50.433 50 52 51.567 52 53.5Z" fill="#DF444D"/>
<path d="M52 103.5C52 105.433 50.433 107 48.5 107C46.567 107 45 105.433 45 103.5C45 101.567 46.567 100 48.5 100C50.433 100 52 101.567 52 103.5Z" fill="#DF444D"/>
<path d="M52 153.5C52 155.433 50.433 157 48.5 157C46.567 157 45 155.433 45 153.5C45 151.567 46.567 150 48.5 150C50.433 150 52 151.567 52 153.5Z" fill="#DF444D"/>
<path d="M52 203.5C52 205.433 50.433 207 48.5 207C46.567 207 45 205.433 45 203.5C45 201.567 46.567 200 48.5 200C50.433 200 52 201.567 52 203.5Z" fill="#DF444D"/>
<path d="M52 253.5C52 255.433 50.433 257 48.5 257C46.567 257 45 255.433 45 253.5C45 251.567 46.567 250 48.5 250C50.433 250 52 251.567 52 253.5Z" fill="#DF444D"/>
<path d="M52 303.5C52 305.433 50.433 307 48.5 307C46.567 307 45 305.433 45 303.5C45 301.567 46.567 300 48.5 300C50.433 300 52 301.567 52 303.5Z" fill="#DF444D"/>
<path d="M99 3.5C99 5.433 97.433 7 95.5 7C93.567 7 92 5.433 92 3.5C92 1.567 93.567 0 95.5 0C97.433 0 99 1.567 99 3.5Z" fill="#DF444D"/>
<path d="M99 53.5C99 55.433 97.433 57 95.5 57C93.567 57 92 55.433 92 53.5C92 51.567 93.567 50 95.5 50C97.433 50 99 51.567 99 53.5Z" fill="#DF444D"/>
<path d="M99 103.5C99 105.433 97.433 107 95.5 107C93.567 107 92 105.433 92 103.5C92 101.567 93.567 100 95.5 100C97.433 100 99 101.567 99 103.5Z" fill="#DF444D"/>
<path d="M99 153.5C99 155.433 97.433 157 95.5 157C93.567 157 92 155.433 92 153.5C92 151.567 93.567 150 95.5 150C97.433 150 99 151.567 99 153.5Z" fill="#DF444D"/>
<path d="M99 203.5C99 205.433 97.433 207 95.5 207C93.567 207 92 205.433 92 203.5C92 201.567 93.567 200 95.5 200C97.433 200 99 201.567 99 203.5Z" fill="#DF444D"/>
<path d="M99 253.5C99 255.433 97.433 257 95.5 257C93.567 257 92 255.433 92 253.5C92 251.567 93.567 250 95.5 250C97.433 250 99 251.567 99 253.5Z" fill="#DF444D"/>
<path d="M99 303.5C99 305.433 97.433 307 95.5 307C93.567 307 92 305.433 92 303.5C92 301.567 93.567 300 95.5 300C97.433 300 99 301.567 99 303.5Z" fill="#DF444D"/>
<path d="M146 3.5C146 5.433 144.433 7 142.5 7C140.567 7 139 5.433 139 3.5C139 1.567 140.567 0 142.5 0C144.433 0 146 1.567 146 3.5Z" fill="#DF444D"/>
<path d="M146 53.5C146 55.433 144.433 57 142.5 57C140.567 57 139 55.433 139 53.5C139 51.567 140.567 50 142.5 50C144.433 50 146 51.567 146 53.5Z" fill="#DF444D"/>
<path d="M146 103.5C146 105.433 144.433 107 142.5 107C140.567 107 139 105.433 139 103.5C139 101.567 140.567 100 142.5 100C144.433 100 146 101.567 146 103.5Z" fill="#DF444D"/>
<path d="M146 153.5C146 155.433 144.433 157 142.5 157C140.567 157 139 155.433 139 153.5C139 151.567 140.567 150 142.5 150C144.433 150 146 151.567 146 153.5Z" fill="#DF444D"/>
<path d="M146 203.5C146 205.433 144.433 207 142.5 207C140.567 207 139 205.433 139 203.5C139 201.567 140.567 200 142.5 200C144.433 200 146 201.567 146 203.5Z" fill="#DF444D"/>
<path d="M146 253.5C146 255.433 144.433 257 142.5 257C140.567 257 139 255.433 139 253.5C139 251.567 140.567 250 142.5 250C144.433 250 146 251.567 146 253.5Z" fill="#DF444D"/>
<path d="M146 303.5C146 305.433 144.433 307 142.5 307C140.567 307 139 305.433 139 303.5C139 301.567 140.567 300 142.5 300C144.433 300 146 301.567 146 303.5Z" fill="#DF444D"/>
<path d="M193 3.5C193 5.433 191.433 7 189.5 7C187.567 7 186 5.433 186 3.5C186 1.567 187.567 0 189.5 0C191.433 0 193 1.567 193 3.5Z" fill="#DF444D"/>
<path d="M193 53.5C193 55.433 191.433 57 189.5 57C187.567 57 186 55.433 186 53.5C186 51.567 187.567 50 189.5 50C191.433 50 193 51.567 193 53.5Z" fill="#DF444D"/>
<path d="M193 103.5C193 105.433 191.433 107 189.5 107C187.567 107 186 105.433 186 103.5C186 101.567 187.567 100 189.5 100C191.433 100 193 101.567 193 103.5Z" fill="#DF444D"/>
<path d="M193 153.5C193 155.433 191.433 157 189.5 157C187.567 157 186 155.433 186 153.5C186 151.567 187.567 150 189.5 150C191.433 150 193 151.567 193 153.5Z" fill="#DF444D"/>
<path d="M193 203.5C193 205.433 191.433 207 189.5 207C187.567 207 186 205.433 186 203.5C186 201.567 187.567 200 189.5 200C191.433 200 193 201.567 193 203.5Z" fill="#DF444D"/>
<path d="M193 253.5C193 255.433 191.433 257 189.5 257C187.567 257 186 255.433 186 253.5C186 251.567 187.567 250 189.5 250C191.433 250 193 251.567 193 253.5Z" fill="#DF444D"/>
<path d="M193 303.5C193 305.433 191.433 307 189.5 307C187.567 307 186 305.433 186 303.5C186 301.567 187.567 300 189.5 300C191.433 300 193 301.567 193 303.5Z" fill="#DF444D"/>
<path d="M-161 28.5C-161 30.433 -162.567 32 -164.5 32C-166.433 32 -168 30.433 -168 28.5C-168 26.567 -166.433 25 -164.5 25C-162.567 25 -161 26.567 -161 28.5Z" fill="#DF444D"/>
<path d="M-161 78.5C-161 80.433 -162.567 82 -164.5 82C-166.433 82 -168 80.433 -168 78.5C-168 76.567 -166.433 75 -164.5 75C-162.567 75 -161 76.567 -161 78.5Z" fill="#DF444D"/>
<path d="M-161 128.5C-161 130.433 -162.567 132 -164.5 132C-166.433 132 -168 130.433 -168 128.5C-168 126.567 -166.433 125 -164.5 125C-162.567 125 -161 126.567 -161 128.5Z" fill="#DF444D"/>
<path d="M-161 178.5C-161 180.433 -162.567 182 -164.5 182C-166.433 182 -168 180.433 -168 178.5C-168 176.567 -166.433 175 -164.5 175C-162.567 175 -161 176.567 -161 178.5Z" fill="#DF444D"/>
<path d="M-161 228.5C-161 230.433 -162.567 232 -164.5 232C-166.433 232 -168 230.433 -168 228.5C-168 226.567 -166.433 225 -164.5 225C-162.567 225 -161 226.567 -161 228.5Z" fill="#DF444D"/>
<path d="M-161 278.5C-161 280.433 -162.567 282 -164.5 282C-166.433 282 -168 280.433 -168 278.5C-168 276.567 -166.433 275 -164.5 275C-162.567 275 -161 276.567 -161 278.5Z" fill="#DF444D"/>
<path d="M-161 328.5C-161 330.433 -162.567 332 -164.5 332C-166.433 332 -168 330.433 -168 328.5C-168 326.567 -166.433 325 -164.5 325C-162.567 325 -161 326.567 -161 328.5Z" fill="#DF444D"/>
<path d="M-114 28.5C-114 30.433 -115.567 32 -117.5 32C-119.433 32 -121 30.433 -121 28.5C-121 26.567 -119.433 25 -117.5 25C-115.567 25 -114 26.567 -114 28.5Z" fill="#DF444D"/>
<path d="M-114 78.5C-114 80.433 -115.567 82 -117.5 82C-119.433 82 -121 80.433 -121 78.5C-121 76.567 -119.433 75 -117.5 75C-115.567 75 -114 76.567 -114 78.5Z" fill="#DF444D"/>
<path d="M-114 128.5C-114 130.433 -115.567 132 -117.5 132C-119.433 132 -121 130.433 -121 128.5C-121 126.567 -119.433 125 -117.5 125C-115.567 125 -114 126.567 -114 128.5Z" fill="#DF444D"/>
<path d="M-114 178.5C-114 180.433 -115.567 182 -117.5 182C-119.433 182 -121 180.433 -121 178.5C-121 176.567 -119.433 175 -117.5 175C-115.567 175 -114 176.567 -114 178.5Z" fill="#DF444D"/>
<path d="M-114 228.5C-114 230.433 -115.567 232 -117.5 232C-119.433 232 -121 230.433 -121 228.5C-121 226.567 -119.433 225 -117.5 225C-115.567 225 -114 226.567 -114 228.5Z" fill="#DF444D"/>
<path d="M-114 278.5C-114 280.433 -115.567 282 -117.5 282C-119.433 282 -121 280.433 -121 278.5C-121 276.567 -119.433 275 -117.5 275C-115.567 275 -114 276.567 -114 278.5Z" fill="#DF444D"/>
<path d="M-114 328.5C-114 330.433 -115.567 332 -117.5 332C-119.433 332 -121 330.433 -121 328.5C-121 326.567 -119.433 325 -117.5 325C-115.567 325 -114 326.567 -114 328.5Z" fill="#DF444D"/>
<path d="M-67 28.5C-67 30.433 -68.567 32 -70.5 32C-72.433 32 -74 30.433 -74 28.5C-74 26.567 -72.433 25 -70.5 25C-68.567 25 -67 26.567 -67 28.5Z" fill="#DF444D"/>
<path d="M-67 78.5C-67 80.433 -68.567 82 -70.5 82C-72.433 82 -74 80.433 -74 78.5C-74 76.567 -72.433 75 -70.5 75C-68.567 75 -67 76.567 -67 78.5Z" fill="#DF444D"/>
<path d="M-67 128.5C-67 130.433 -68.567 132 -70.5 132C-72.433 132 -74 130.433 -74 128.5C-74 126.567 -72.433 125 -70.5 125C-68.567 125 -67 126.567 -67 128.5Z" fill="#DF444D"/>
<path d="M-67 178.5C-67 180.433 -68.567 182 -70.5 182C-72.433 182 -74 180.433 -74 178.5C-74 176.567 -72.433 175 -70.5 175C-68.567 175 -67 176.567 -67 178.5Z" fill="#DF444D"/>
<path d="M-67 228.5C-67 230.433 -68.567 232 -70.5 232C-72.433 232 -74 230.433 -74 228.5C-74 226.567 -72.433 225 -70.5 225C-68.567 225 -67 226.567 -67 228.5Z" fill="#DF444D"/>
<path d="M-67 278.5C-67 280.433 -68.567 282 -70.5 282C-72.433 282 -74 280.433 -74 278.5C-74 276.567 -72.433 275 -70.5 275C-68.567 275 -67 276.567 -67 278.5Z" fill="#DF444D"/>
<path d="M-67 328.5C-67 330.433 -68.567 332 -70.5 332C-72.433 332 -74 330.433 -74 328.5C-74 326.567 -72.433 325 -70.5 325C-68.567 325 -67 326.567 -67 328.5Z" fill="#DF444D"/>
<path d="M-20 28.5C-20 30.433 -21.567 32 -23.5 32C-25.433 32 -27 30.433 -27 28.5C-27 26.567 -25.433 25 -23.5 25C-21.567 25 -20 26.567 -20 28.5Z" fill="#DF444D"/>
<path d="M-20 78.5C-20 80.433 -21.567 82 -23.5 82C-25.433 82 -27 80.433 -27 78.5C-27 76.567 -25.433 75 -23.5 75C-21.567 75 -20 76.567 -20 78.5Z" fill="#DF444D"/>
<path d="M-20 128.5C-20 130.433 -21.567 132 -23.5 132C-25.433 132 -27 130.433 -27 128.5C-27 126.567 -25.433 125 -23.5 125C-21.567 125 -20 126.567 -20 128.5Z" fill="#DF444D"/>
<path d="M-20 178.5C-20 180.433 -21.567 182 -23.5 182C-25.433 182 -27 180.433 -27 178.5C-27 176.567 -25.433 175 -23.5 175C-21.567 175 -20 176.567 -20 178.5Z" fill="#DF444D"/>
<path d="M-20 228.5C-20 230.433 -21.567 232 -23.5 232C-25.433 232 -27 230.433 -27 228.5C-27 226.567 -25.433 225 -23.5 225C-21.567 225 -20 226.567 -20 228.5Z" fill="#DF444D"/>
<path d="M-20 278.5C-20 280.433 -21.567 282 -23.5 282C-25.433 282 -27 280.433 -27 278.5C-27 276.567 -25.433 275 -23.5 275C-21.567 275 -20 276.567 -20 278.5Z" fill="#DF444D"/>
<path d="M-20 328.5C-20 330.433 -21.567 332 -23.5 332C-25.433 332 -27 330.433 -27 328.5C-27 326.567 -25.433 325 -23.5 325C-21.567 325 -20 326.567 -20 328.5Z" fill="#DF444D"/>
<path d="M27 28.5C27 30.433 25.433 32 23.5 32C21.567 32 20 30.433 20 28.5C20 26.567 21.567 25 23.5 25C25.433 25 27 26.567 27 28.5Z" fill="#DF444D"/>
<path d="M27 78.5C27 80.433 25.433 82 23.5 82C21.567 82 20 80.433 20 78.5C20 76.567 21.567 75 23.5 75C25.433 75 27 76.567 27 78.5Z" fill="#DF444D"/>
<path d="M27 128.5C27 130.433 25.433 132 23.5 132C21.567 132 20 130.433 20 128.5C20 126.567 21.567 125 23.5 125C25.433 125 27 126.567 27 128.5Z" fill="#DF444D"/>
<path d="M27 178.5C27 180.433 25.433 182 23.5 182C21.567 182 20 180.433 20 178.5C20 176.567 21.567 175 23.5 175C25.433 175 27 176.567 27 178.5Z" fill="#DF444D"/>
<path d="M27 228.5C27 230.433 25.433 232 23.5 232C21.567 232 20 230.433 20 228.5C20 226.567 21.567 225 23.5 225C25.433 225 27 226.567 27 228.5Z" fill="#DF444D"/>
<path d="M27 278.5C27 280.433 25.433 282 23.5 282C21.567 282 20 280.433 20 278.5C20 276.567 21.567 275 23.5 275C25.433 275 27 276.567 27 278.5Z" fill="#DF444D"/>
<path d="M27 328.5C27 330.433 25.433 332 23.5 332C21.567 332 20 330.433 20 328.5C20 326.567 21.567 325 23.5 325C25.433 325 27 326.567 27 328.5Z" fill="#DF444D"/>
<path d="M74 28.5C74 30.433 72.433 32 70.5 32C68.567 32 67 30.433 67 28.5C67 26.567 68.567 25 70.5 25C72.433 25 74 26.567 74 28.5Z" fill="#DF444D"/>
<path d="M74 78.5C74 80.433 72.433 82 70.5 82C68.567 82 67 80.433 67 78.5C67 76.567 68.567 75 70.5 75C72.433 75 74 76.567 74 78.5Z" fill="#DF444D"/>
<path d="M74 128.5C74 130.433 72.433 132 70.5 132C68.567 132 67 130.433 67 128.5C67 126.567 68.567 125 70.5 125C72.433 125 74 126.567 74 128.5Z" fill="#DF444D"/>
<path d="M74 178.5C74 180.433 72.433 182 70.5 182C68.567 182 67 180.433 67 178.5C67 176.567 68.567 175 70.5 175C72.433 175 74 176.567 74 178.5Z" fill="#DF444D"/>
<path d="M74 228.5C74 230.433 72.433 232 70.5 232C68.567 232 67 230.433 67 228.5C67 226.567 68.567 225 70.5 225C72.433 225 74 226.567 74 228.5Z" fill="#DF444D"/>
<path d="M74 278.5C74 280.433 72.433 282 70.5 282C68.567 282 67 280.433 67 278.5C67 276.567 68.567 275 70.5 275C72.433 275 74 276.567 74 278.5Z" fill="#DF444D"/>
<path d="M74 328.5C74 330.433 72.433 332 70.5 332C68.567 332 67 330.433 67 328.5C67 326.567 68.567 325 70.5 325C72.433 325 74 326.567 74 328.5Z" fill="#DF444D"/>
<path d="M121 28.5C121 30.433 119.433 32 117.5 32C115.567 32 114 30.433 114 28.5C114 26.567 115.567 25 117.5 25C119.433 25 121 26.567 121 28.5Z" fill="#DF444D"/>
<path d="M121 78.5C121 80.433 119.433 82 117.5 82C115.567 82 114 80.433 114 78.5C114 76.567 115.567 75 117.5 75C119.433 75 121 76.567 121 78.5Z" fill="#DF444D"/>
<path d="M121 128.5C121 130.433 119.433 132 117.5 132C115.567 132 114 130.433 114 128.5C114 126.567 115.567 125 117.5 125C119.433 125 121 126.567 121 128.5Z" fill="#DF444D"/>
<path d="M121 178.5C121 180.433 119.433 182 117.5 182C115.567 182 114 180.433 114 178.5C114 176.567 115.567 175 117.5 175C119.433 175 121 176.567 121 178.5Z" fill="#DF444D"/>
<path d="M121 228.5C121 230.433 119.433 232 117.5 232C115.567 232 114 230.433 114 228.5C114 226.567 115.567 225 117.5 225C119.433 225 121 226.567 121 228.5Z" fill="#DF444D"/>
<path d="M121 278.5C121 280.433 119.433 282 117.5 282C115.567 282 114 280.433 114 278.5C114 276.567 115.567 275 117.5 275C119.433 275 121 276.567 121 278.5Z" fill="#DF444D"/>
<path d="M121 328.5C121 330.433 119.433 332 117.5 332C115.567 332 114 330.433 114 328.5C114 326.567 115.567 325 117.5 325C119.433 325 121 326.567 121 328.5Z" fill="#DF444D"/>
<path d="M168 28.5C168 30.433 166.433 32 164.5 32C162.567 32 161 30.433 161 28.5C161 26.567 162.567 25 164.5 25C166.433 25 168 26.567 168 28.5Z" fill="#DF444D"/>
<path d="M168 78.5C168 80.433 166.433 82 164.5 82C162.567 82 161 80.433 161 78.5C161 76.567 162.567 75 164.5 75C166.433 75 168 76.567 168 78.5Z" fill="#DF444D"/>
<path d="M168 128.5C168 130.433 166.433 132 164.5 132C162.567 132 161 130.433 161 128.5C161 126.567 162.567 125 164.5 125C166.433 125 168 126.567 168 128.5Z" fill="#DF444D"/>
<path d="M168 178.5C168 180.433 166.433 182 164.5 182C162.567 182 161 180.433 161 178.5C161 176.567 162.567 175 164.5 175C166.433 175 168 176.567 168 178.5Z" fill="#DF444D"/>
<path d="M168 228.5C168 230.433 166.433 232 164.5 232C162.567 232 161 230.433 161 228.5C161 226.567 162.567 225 164.5 225C166.433 225 168 226.567 168 228.5Z" fill="#DF444D"/>
<path d="M168 278.5C168 280.433 166.433 282 164.5 282C162.567 282 161 280.433 161 278.5C161 276.567 162.567 275 164.5 275C166.433 275 168 276.567 168 278.5Z" fill="#DF444D"/>
<path d="M168 328.5C168 330.433 166.433 332 164.5 332C162.567 332 161 330.433 161 328.5C161 326.567 162.567 325 164.5 325C166.433 325 168 326.567 168 328.5Z" fill="#DF444D"/>
</g>
<defs>
<linearGradient id="paint0_linear" x1="0" y1="622" x2="1495.14" y2="-211.626" gradientUnits="userSpaceOnUse">
<stop stop-color="#F8F0EF"/>
<stop offset="1" stop-color="#FAF1FD"/>
</linearGradient>
</defs>
</svg>
