<svg width="264" height="272" viewBox="0 0 264 272" fill="none" xmlns="http://www.w3.org/2000/svg">
<path d="M241.397 99.339C234.587 106.644 226.855 112.067 218.678 116.726C211.132 121.004 203.491 125.123 195.66 128.922C188.682 132.311 181.481 135.412 174.216 138.13C163.887 142.019 153.399 145.621 142.911 149.031C133.181 152.189 123.355 155.06 113.466 157.74C104.398 160.231 95.266 162.34 86.1026 164.545C80.0358 165.993 73.9048 167.123 67.87 168.731C66.2271 169.172 64.4915 170.473 63.4834 171.871C57.4346 180.197 49.3839 184.728 39.2048 185.465C31.1753 186.017 23.7081 183.959 17.0878 179.325C6.38133 171.847 0.757597 161.42 1.00801 148.399C1.31649 133.404 11.5272 120.632 26.8858 117.681C40.8538 114.98 56.1128 122.279 63.67 134.525C66.4007 138.926 68.2788 143.739 68.672 149.025C68.9008 151.859 69.3121 151.956 71.775 150.689C81.8792 145.558 92.0469 140.491 102.183 135.392C111.593 130.641 121.002 125.89 130.412 121.076C141.4 115.502 152.389 109.864 163.345 104.194C171.965 99.7275 180.553 95.1019 189.205 90.6676C199.561 85.2826 209.982 80.0889 220.306 74.672C227.569 70.8707 234.672 66.8461 241.839 62.9491C245.502 60.9848 249.164 59.0206 252.827 57.12C254.311 56.328 255.419 56.9996 255.898 58.8793C257.815 66.2709 257.17 73.4964 254.438 80.5891C251.485 88.0951 246.949 94.3233 241.397 99.339ZM50.0312 166.327C57.8203 158.484 57.596 145.302 49.5438 137.194C41.1429 128.734 28.2096 128.159 20.4514 135.716C11.7155 144.193 13.1419 157.633 21.2575 165.805C29.0877 173.626 42.526 173.885 50.0312 166.327ZM117.719 139.668C115.563 137.433 112.084 137.233 110.129 139.202C108.016 141.329 107.994 144.991 110.086 147.097C112.21 149.236 115.879 149.373 117.928 147.373C119.947 145.404 119.843 141.87 117.719 139.668Z" fill="#755AAF"/>
<path d="M148.992 104.729C147.129 105.774 145.361 106.852 143.499 107.834C133.205 113.156 122.88 118.445 112.586 123.766C111.387 124.4 110.314 125.225 109.082 125.699C108.324 126.016 107.091 126.108 106.616 125.693C106.172 125.31 106.168 123.972 106.451 123.241C109.997 113.03 113.322 102.723 117.279 92.673C121.833 81.0005 126.704 69.4562 131.827 58.0399C134.594 51.9343 138.12 46.2128 141.456 40.3634C146.397 31.6211 152.289 23.5816 159.352 16.4687C166.448 9.26026 174.559 3.71014 184.703 1.66763C189.885 0.598907 195.04 0.835479 200.134 2.21807C202.539 2.86123 202.825 3.7853 201.63 5.94712C195.494 17.2971 189.421 28.6472 183.317 40.029C178.629 48.7721 173.909 57.4832 169.285 66.2264C165.509 73.3481 161.923 80.534 158.18 87.6877C155.317 93.1881 152.391 98.6246 149.464 104.061C149.37 104.284 149.181 104.538 148.992 104.729Z" fill="#755AAF"/>
<path d="M118.061 161.796C117.717 163.228 117.625 164.151 117.247 164.914C113.535 171.909 109.79 178.871 106.046 185.834C105.008 187.773 105.231 188.443 107.508 188.767C115.827 189.903 123.203 193.33 128.815 199.553C136.87 208.426 140.438 218.751 138.51 230.971C136.551 243.542 125.987 254.371 113.662 256.44C104.844 257.912 96.8093 256.49 89.2094 252.076C79.5196 246.447 73.7427 237.899 71.7535 226.878C70.2138 218.468 71.7424 210.608 76.3395 203.298C78.8584 199.293 81.9802 196.086 85.894 193.485C86.9356 192.819 87.8805 191.421 88.1935 190.212C89.8839 183.722 91.3843 177.167 92.9165 170.644C93.3853 168.576 94.4891 167.464 96.5745 166.961C102.61 165.48 108.644 163.809 114.679 162.265C115.627 162.013 116.576 162.015 118.061 161.796ZM90.4326 236.224C93.0011 239.065 95.5033 240.759 99.0796 242.074C112.499 247.076 126.733 237.276 125.65 222.214C124.861 210.877 114.213 201.297 102.99 201.936C97.0149 202.27 92.1838 204.709 88.4654 209.475C82.4463 217.068 83.5537 229.424 90.4326 236.224Z" fill="#755AAF"/>
</svg>
