<svg width="112" height="124" viewBox="0 0 112 124" fill="none" xmlns="http://www.w3.org/2000/svg">
<g filter="url(#filter0_d)">
<path d="M65.6 64.1241H46.4V86.4662C51.9929 88.4362 56 93.7518 56 100C56 93.7518 60.0071 88.4362 65.6 86.4662V64.1241Z" fill="#FFBF51"/>
<path d="M92 51.8759C92 71.6896 75.8823 87.7518 56 87.7518C36.1178 87.7518 20 71.6896 20 51.8759C20 32.0622 36.1178 16 56 16C75.8823 16 92 32.0622 92 51.8759Z" fill="#FFBF51"/>
</g>
<path d="M75.1358 46.111C73.9715 47.3778 72.6496 48.3184 71.2517 49.1263C69.9618 49.8682 68.6555 50.5825 67.3167 51.2415C66.1237 51.8291 64.8926 52.3669 63.6506 52.8384C61.8848 53.5128 60.0919 54.1374 58.2988 54.7289C56.6354 55.2766 54.9556 55.7745 53.265 56.2393C51.7148 56.6713 50.1536 57.037 48.587 57.4193C47.5498 57.6705 46.5017 57.8664 45.47 58.1453C45.1891 58.2218 44.8924 58.4474 44.7201 58.6899C43.686 60.1337 42.3097 60.9196 40.5695 61.0474C39.1968 61.1431 37.9202 60.7863 36.7884 59.9826C34.9581 58.6856 33.9966 56.8775 34.0395 54.6193C34.0922 52.0188 35.8378 49.8038 38.4635 49.2919C40.8514 48.8235 43.46 50.0894 44.752 52.2132C45.2188 52.9764 45.5399 53.811 45.6071 54.7278C45.6462 55.2193 45.7166 55.2361 46.1376 55.0163C47.865 54.1265 49.6032 53.2477 51.3361 52.3634C52.9447 51.5395 54.5534 50.7157 56.162 49.8807C58.0406 48.914 59.9191 47.9362 61.7922 46.9529C63.2659 46.1784 64.734 45.3762 66.2131 44.6071C67.9836 43.6733 69.7651 42.7725 71.5302 41.8331C72.7717 41.1739 73.9861 40.4759 75.2113 39.8C75.8375 39.4594 76.4636 39.1188 77.0898 38.7892C77.3435 38.6518 77.533 38.7683 77.6149 39.0943C77.9425 40.3761 77.8322 41.6292 77.3652 42.8593C76.8604 44.161 76.0849 45.2411 75.1358 46.111ZM42.4203 57.7284C43.7519 56.3682 43.7136 54.0822 42.337 52.676C40.9008 51.2089 38.6898 51.1091 37.3635 52.4196C35.87 53.8898 36.1138 56.2206 37.5013 57.6379C38.8399 58.9943 41.1373 59.0391 42.4203 57.7284ZM53.992 53.105C53.6234 52.7175 53.0288 52.6827 52.6945 53.0242C52.3333 53.3931 52.3295 54.0281 52.6872 54.3935C53.0504 54.7644 53.6774 54.7882 54.0279 54.4413C54.3729 54.0999 54.3551 53.4869 53.992 53.105Z" fill="#111111"/>
<path d="M59.3384 47.0457C59.02 47.227 58.7178 47.4139 58.3993 47.5842C56.6395 48.5071 54.8744 49.4245 53.1146 50.3473C52.9095 50.4572 52.7261 50.6003 52.5155 50.6825C52.3859 50.7374 52.1751 50.7534 52.0939 50.6814C52.018 50.6149 52.0174 50.383 52.0657 50.2562C52.672 48.4854 53.2403 46.6979 53.9169 44.9549C54.6954 42.9306 55.5281 40.9285 56.404 38.9487C56.877 37.8898 57.4798 36.8976 58.0501 35.8831C58.8948 34.367 59.902 32.9727 61.1096 31.7392C62.3226 30.4891 63.7093 29.5265 65.4435 29.1723C66.3295 28.987 67.2106 29.028 68.0815 29.2678C68.4926 29.3793 68.5417 29.5396 68.3372 29.9145C67.2883 31.8828 66.2502 33.8512 65.2066 35.8251C64.4052 37.3414 63.5983 38.8521 62.8076 40.3684C62.1621 41.6035 61.5492 42.8497 60.9091 44.0903C60.4197 45.0443 59.9195 45.9871 59.4192 46.9299C59.4031 46.9685 59.3708 47.0126 59.3384 47.0457Z" fill="#111111"/>
<path d="M54.0506 56.9426C53.9918 57.191 53.976 57.351 53.9114 57.4834C53.2767 58.6964 52.6366 59.9039 51.9965 61.1114C51.819 61.4477 51.8572 61.5638 52.2465 61.62C53.6686 61.8171 54.9296 62.4113 55.8891 63.4906C57.266 65.0293 57.8761 66.82 57.5464 68.9394C57.2115 71.1195 55.4056 72.9974 53.2984 73.3562C51.791 73.6116 50.4174 73.365 49.1182 72.5995C47.4616 71.6232 46.474 70.1408 46.1339 68.2294C45.8707 66.771 46.132 65.4079 46.9179 64.1401C47.3486 63.4455 47.8823 62.8893 48.5514 62.4383C48.7294 62.3228 48.891 62.0803 48.9445 61.8707C49.2335 60.745 49.49 59.6083 49.7519 58.4771C49.8321 58.1184 50.0207 57.9257 50.3773 57.8383C51.409 57.5815 52.4407 57.2917 53.4724 57.0239C53.6345 56.9802 53.7966 56.9806 54.0506 56.9426ZM49.3273 69.8503C49.7664 70.3429 50.1941 70.6367 50.8055 70.8648C53.0996 71.7323 55.533 70.0327 55.3479 67.4205C55.2131 65.4545 53.3926 63.7931 51.474 63.9039C50.4526 63.9619 49.6266 64.3848 48.991 65.2113C47.9619 66.5282 48.1513 68.6711 49.3273 69.8503Z" fill="#111111"/>
<defs>
<filter id="filter0_d" x="0" y="0" width="112" height="124" filterUnits="userSpaceOnUse" color-interpolation-filters="sRGB">
<feFlood flood-opacity="0" result="BackgroundImageFix"/>
<feColorMatrix in="SourceAlpha" type="matrix" values="0 0 0 0 0 0 0 0 0 0 0 0 0 0 0 0 0 0 127 0"/>
<feOffset dy="4"/>
<feGaussianBlur stdDeviation="10"/>
<feColorMatrix type="matrix" values="0 0 0 0 0.795833 0 0 0 0 0.582392 0 0 0 0 0.215538 0 0 0 1 0"/>
<feBlend mode="normal" in2="BackgroundImageFix" result="effect1_dropShadow"/>
<feBlend mode="normal" in="SourceGraphic" in2="effect1_dropShadow" result="shape"/>
</filter>
</defs>
</svg>
