<svg width="41" height="41" viewBox="0 0 41 41" fill="none" xmlns="http://www.w3.org/2000/svg">
<path d="M30.0861 28.5674C29.9428 28.3856 26.5077 24.1133 20.5 24.1133C14.4923 24.1133 11.0572 28.3855 10.9138 28.5674L13.4299 30.5498C13.4553 30.5174 16.0291 27.3164 20.5 27.3164C24.916 27.3164 27.4687 30.424 27.5752 30.5562L27.5701 30.5498L30.0861 28.5674Z" fill="#755AAF"/>
<path d="M34.9957 6.00426C31.1237 2.1324 25.9757 0 20.5 0C15.0243 0 9.87628 2.1324 6.00426 6.00426C2.1324 9.87628 0 15.0243 0 20.5C0 25.9757 2.1324 31.1238 6.00426 34.9957C9.87628 38.8676 15.0243 41 20.5 41C25.9757 41 31.1237 38.8676 34.9957 34.9957C38.8676 31.1238 41 25.9757 41 20.5C41 15.0243 38.8676 9.87628 34.9957 6.00426ZM20.5 37.7969C10.9625 37.7969 3.20312 30.0375 3.20312 20.5C3.20312 10.9625 10.9625 3.20312 20.5 3.20312C30.0375 3.20312 37.7969 10.9625 37.7969 20.5C37.7969 30.0375 30.0375 37.7969 20.5 37.7969Z" fill="#755AAF"/>
<path d="M13.4531 16.9861C14.8684 16.9861 16.0156 15.8388 16.0156 14.4236C16.0156 13.0084 14.8684 11.8611 13.4531 11.8611C12.0379 11.8611 10.8906 13.0084 10.8906 14.4236C10.8906 15.8388 12.0379 16.9861 13.4531 16.9861Z" fill="#755AAF"/>
<path d="M27.5469 16.9861C28.9621 16.9861 30.1094 15.8388 30.1094 14.4236C30.1094 13.0084 28.9621 11.8611 27.5469 11.8611C26.1316 11.8611 24.9844 13.0084 24.9844 14.4236C24.9844 15.8388 26.1316 16.9861 27.5469 16.9861Z" fill="#755AAF"/>
</svg>
