<svg width="21" height="21" viewBox="0 0 21 21" fill="none" xmlns="http://www.w3.org/2000/svg">
<path d="M2.62398 14C4.00872 15.3867 5.85275 16.2191 7.80868 16.3405C9.76462 16.4619 11.6974 15.8638 13.243 14.659L18.561 19.977C18.7496 20.1592 19.0022 20.26 19.2644 20.2577C19.5266 20.2554 19.7774 20.1502 19.9628 19.9648C20.1482 19.7794 20.2534 19.5286 20.2557 19.2664C20.2579 19.0042 20.1571 18.7516 19.975 18.563L14.657 13.245C15.9153 11.6302 16.5102 9.59615 16.3204 7.55777C16.1305 5.51939 15.1703 3.6302 13.6355 2.27547C12.1006 0.920735 10.1068 0.202515 8.06065 0.267281C6.01447 0.332046 4.07007 1.17492 2.62398 2.624C1.87678 3.37083 1.28405 4.25755 0.879642 5.23352C0.475238 6.20948 0.26709 7.25557 0.26709 8.312C0.26709 9.36844 0.475238 10.4145 0.879642 11.3905C1.28405 12.3665 1.87678 13.2532 2.62398 14ZM4.03798 4.04C5.02656 3.05145 6.32731 2.43624 7.71861 2.2992C9.10992 2.16215 10.5057 2.51175 11.6681 3.28843C12.8306 4.0651 13.6878 5.2208 14.0937 6.55862C14.4996 7.89644 14.4291 9.33361 13.8941 10.6253C13.3592 11.9169 12.393 12.9831 11.1601 13.6423C9.92721 14.3014 8.50391 14.5127 7.13271 14.2401C5.7615 13.9675 4.52723 13.2279 3.64018 12.1473C2.75313 11.0668 2.26819 9.71204 2.26798 8.314C2.26524 7.51958 2.42029 6.73251 2.72413 5.99848C3.02798 5.26445 3.47456 4.59807 4.03798 4.038V4.04Z" fill="#111111"/>
</svg>
